G75*
%MOIN*%
%OFA0B0*%
%FSLAX24Y24*%
%IPPOS*%
%LPD*%
%AMOC8*
5,1,8,0,0,1.08239X$1,22.5*
%
%ADD10C,0.0000*%
%ADD11R,0.0660X0.0660*%
%ADD12C,0.0740*%
%ADD13R,0.0700X0.0700*%
%ADD14C,0.0240*%
D10*
X000100Y001463D02*
X000100Y010209D01*
X010970Y010209D01*
X010970Y001463D01*
X000100Y001463D01*
D11*
X005100Y005013D03*
X006100Y005013D03*
X006100Y006013D03*
X005100Y006013D03*
X005100Y007013D03*
X006100Y007013D03*
X006100Y008013D03*
X005100Y008013D03*
X005100Y009013D03*
X006100Y009013D03*
X008600Y007513D03*
X008600Y006513D03*
X009600Y006513D03*
X009600Y007513D03*
X009600Y005513D03*
X008600Y005513D03*
D12*
X003240Y004793D03*
X001460Y004793D03*
X001460Y002233D03*
X003240Y002233D03*
D13*
X003100Y006013D03*
X001600Y006013D03*
X001600Y009013D03*
X003100Y009013D03*
X007100Y009013D03*
X007100Y006013D03*
D14*
X006100Y006013D01*
X006100Y005013D02*
X009100Y005013D01*
X009100Y006513D01*
X009600Y006513D01*
X009600Y007513D02*
X010250Y007513D01*
X010250Y004013D01*
X003100Y004013D01*
X001600Y005413D01*
X001000Y005413D01*
X001000Y006613D01*
X003100Y006613D01*
X003100Y006013D01*
X003250Y005013D02*
X002700Y005013D01*
X001600Y006013D01*
X000600Y006763D02*
X000600Y005013D01*
X001600Y005013D01*
X001460Y004793D01*
X003240Y004793D02*
X003250Y005013D01*
X005100Y005013D01*
X005100Y004413D01*
X009600Y004413D01*
X009600Y005513D01*
X008600Y005513D02*
X007850Y005513D01*
X007850Y008013D01*
X007100Y008013D01*
X007100Y009013D01*
X007100Y008013D02*
X006100Y008013D01*
X005100Y008013D02*
X003100Y008013D01*
X003100Y009013D01*
X001600Y009013D01*
X000850Y007013D02*
X000600Y006763D01*
X000850Y007013D02*
X005100Y007013D01*
M02*
